<mxfile host="app.diagrams.net" modified="2024-02-13T11:54:21.727Z" agent="Mozilla/5.0 (Windows NT 10.0; Win64; x64) AppleWebKit/537.36 (KHTML, like Gecko) Chrome/121.0.0.0 Safari/537.36" etag="eJp3inymicBQ_Ql4FW-f" version="23.0.2" type="github">
  <diagram name="Página-1" id="KKRNxSsjoZxyB-TM747Z">
    <mxGraphModel dx="778" dy="484" grid="1" gridSize="10" guides="1" tooltips="1" connect="1" arrows="1" fold="1" page="1" pageScale="1" pageWidth="827" pageHeight="1169" math="0" shadow="0">
      <root>
        <mxCell id="0" />
        <mxCell id="1" parent="0" />
        <mxCell id="mgDRuCMF4Y_NgmWoDNSQ-1" value="&lt;font style=&quot;font-size: 17px;&quot;&gt;Tipos de Aplicaciones&lt;br&gt;&lt;br&gt;WEB&amp;nbsp;&lt;br&gt;Escritorio&lt;br&gt;&lt;font color=&quot;#4aff56&quot;&gt;Móviles&lt;br&gt;Híbridas&lt;/font&gt;&lt;br&gt;&lt;/font&gt;" style="rounded=0;whiteSpace=wrap;html=1;" vertex="1" parent="1">
          <mxGeometry x="110" y="10" width="180" height="130" as="geometry" />
        </mxCell>
        <mxCell id="mgDRuCMF4Y_NgmWoDNSQ-2" value="&lt;font color=&quot;#5cff4a&quot;&gt;Monolítica&lt;br&gt;Distribuida&lt;/font&gt;" style="rounded=1;whiteSpace=wrap;html=1;" vertex="1" parent="1">
          <mxGeometry x="150" y="210" width="120" height="60" as="geometry" />
        </mxCell>
        <mxCell id="mgDRuCMF4Y_NgmWoDNSQ-3" value="" style="shape=flexArrow;endArrow=classic;html=1;rounded=0;entryX=0.5;entryY=0;entryDx=0;entryDy=0;exitX=0.549;exitY=1.01;exitDx=0;exitDy=0;exitPerimeter=0;" edge="1" parent="1" source="mgDRuCMF4Y_NgmWoDNSQ-1" target="mgDRuCMF4Y_NgmWoDNSQ-2">
          <mxGeometry width="50" height="50" relative="1" as="geometry">
            <mxPoint x="190" y="170" as="sourcePoint" />
            <mxPoint x="240" y="120" as="targetPoint" />
          </mxGeometry>
        </mxCell>
        <mxCell id="mgDRuCMF4Y_NgmWoDNSQ-4" value="Stack Tecnológico&lt;br&gt;&lt;font color=&quot;#ffae0d&quot;&gt;(Investigar)&lt;/font&gt;" style="rounded=1;whiteSpace=wrap;html=1;" vertex="1" parent="1">
          <mxGeometry x="320" y="210" width="120" height="60" as="geometry" />
        </mxCell>
        <mxCell id="mgDRuCMF4Y_NgmWoDNSQ-5" value="" style="shape=flexArrow;endArrow=classic;html=1;rounded=0;entryX=1;entryY=0.5;entryDx=0;entryDy=0;exitX=0;exitY=0.5;exitDx=0;exitDy=0;" edge="1" parent="1" source="mgDRuCMF4Y_NgmWoDNSQ-4" target="mgDRuCMF4Y_NgmWoDNSQ-2">
          <mxGeometry width="50" height="50" relative="1" as="geometry">
            <mxPoint x="219" y="151" as="sourcePoint" />
            <mxPoint x="220" y="220" as="targetPoint" />
          </mxGeometry>
        </mxCell>
        <mxCell id="mgDRuCMF4Y_NgmWoDNSQ-6" value="Despliegue" style="rounded=1;whiteSpace=wrap;html=1;" vertex="1" parent="1">
          <mxGeometry x="150" y="340" width="120" height="60" as="geometry" />
        </mxCell>
        <mxCell id="mgDRuCMF4Y_NgmWoDNSQ-9" value="" style="shape=flexArrow;endArrow=classic;html=1;rounded=0;exitX=0.5;exitY=1;exitDx=0;exitDy=0;" edge="1" parent="1" source="mgDRuCMF4Y_NgmWoDNSQ-2">
          <mxGeometry width="50" height="50" relative="1" as="geometry">
            <mxPoint x="209.5" y="280" as="sourcePoint" />
            <mxPoint x="211" y="340" as="targetPoint" />
          </mxGeometry>
        </mxCell>
        <mxCell id="mgDRuCMF4Y_NgmWoDNSQ-10" value="&lt;font color=&quot;#32ff24&quot;&gt;Store (Progr. Móvil)&amp;nbsp;&lt;/font&gt;&lt;br&gt;IOS&lt;br&gt;&lt;font color=&quot;#32ff24&quot;&gt;Android&lt;/font&gt;" style="rounded=1;whiteSpace=wrap;html=1;" vertex="1" parent="1">
          <mxGeometry x="320" y="340" width="130" height="60" as="geometry" />
        </mxCell>
        <mxCell id="mgDRuCMF4Y_NgmWoDNSQ-11" value="" style="shape=flexArrow;endArrow=classic;html=1;rounded=0;entryX=1;entryY=0.5;entryDx=0;entryDy=0;exitX=0;exitY=0.5;exitDx=0;exitDy=0;" edge="1" parent="1">
          <mxGeometry width="50" height="50" relative="1" as="geometry">
            <mxPoint x="320" y="369.64" as="sourcePoint" />
            <mxPoint x="270" y="369.64" as="targetPoint" />
          </mxGeometry>
        </mxCell>
      </root>
    </mxGraphModel>
  </diagram>
</mxfile>
